<svg width="46" height="48" viewBox="0 0 46 48" fill="none" xmlns="http://www.w3.org/2000/svg">
<path d="M45.4536 33.7774C45.4216 42.399 40.507 47.5206 32.2952 47.4901L29.6105 47.4801C28.3697 47.4755 27.3585 46.4059 27.3633 45.1032L27.4141 31.4366C27.4164 30.7971 27.9148 30.2542 28.5239 30.2564L32.4947 30.2001C32.8106 30.1776 33.0822 29.9417 33.1511 29.6104L33.9575 25.0894C34.0268 24.6633 33.7125 24.2595 33.2838 24.2579L28.4783 24.3111C27.8466 24.3087 27.3522 23.7858 27.332 23.1462L27.2634 17.3429C27.2648 16.9639 27.5593 16.6334 27.9428 16.6349L33.3575 16.5602C33.741 16.5616 34.0355 16.2548 34.037 15.8522L33.9678 10.1672C33.9693 9.76458 33.6772 9.4556 33.2937 9.45418L27.2021 9.52633C23.4569 9.58348 20.467 12.7936 20.5201 16.7257L20.6087 23.2397C20.6288 23.903 20.1306 24.4222 19.4988 24.4435L16.7915 24.4809C16.4079 24.4794 16.1135 24.7863 16.112 25.1889L16.163 29.6894C16.1615 30.0921 16.4536 30.4011 16.8372 30.4025L19.5445 30.3652C20.1762 30.3675 20.6706 30.8905 20.6908 31.5301L20.8437 45.0316C20.8613 46.3581 19.8421 47.4439 18.5787 47.4392L13.3899 47.4199C5.17812 47.3894 0.301697 42.2315 0.333795 33.5862L0.407402 13.7613C0.439413 5.13978 5.354 0.0181763 13.5658 0.0486656L32.471 0.118858C40.6829 0.149347 45.5593 5.3073 45.5273 13.9289L45.4536 33.7774Z" fill="#061150"/>
</svg>
