<svg width="23" height="24" viewBox="0 0 23 24" fill="none" xmlns="http://www.w3.org/2000/svg">
<path d="M22.4517 16.7364C22.4364 20.8488 20.0922 23.2917 16.1753 23.2772L14.8947 23.2724C14.3029 23.2703 13.8205 22.76 13.8228 22.1387L13.847 15.6198C13.8482 15.3148 14.0859 15.0558 14.3764 15.0569L16.2705 15.03C16.4212 15.0193 16.5507 14.9068 16.5836 14.7487L16.9682 12.5923C17.0013 12.389 16.8513 12.1964 16.6469 12.1956L14.3547 12.221C14.0534 12.2199 13.8176 11.9705 13.8079 11.6654L13.7752 8.89727C13.7758 8.71651 13.9163 8.55887 14.0992 8.55955L16.682 8.52393C16.865 8.52461 17.0054 8.37827 17.0061 8.18621L16.9731 5.47455C16.9738 5.28249 16.8345 5.13511 16.6516 5.13443L13.746 5.16884C11.9595 5.19611 10.5334 6.72732 10.5587 8.60288L10.601 11.71C10.6106 12.0264 10.3729 12.274 10.0716 12.2842L8.78017 12.302C8.59723 12.3013 8.45681 12.4477 8.45609 12.6397L8.48041 14.7865C8.47969 14.9785 8.61903 15.1259 8.80196 15.1266L10.0934 15.1088C10.3947 15.1099 10.6305 15.3593 10.6401 15.6644L10.713 22.1045C10.7214 22.7372 10.2353 23.2551 9.63267 23.2529L7.15767 23.2437C3.24072 23.2292 0.91471 20.7689 0.930021 16.6452L0.965131 7.18891C0.980399 3.0765 3.32461 0.633548 7.24157 0.648091L16.2592 0.681572C20.1761 0.696115 22.5021 3.15641 22.4869 7.26882L22.4517 16.7364Z" fill="#1D2376"/>
</svg>
