<svg width="24" height="24" viewBox="0 0 24 24" fill="none" xmlns="http://www.w3.org/2000/svg">
<path d="M7.14947 0.767902C6.1518 0.78171 5.16203 0.957453 4.22894 1.29387C2.63556 1.8826 1.37562 3.08141 0.758829 4.59906C0.412214 5.47651 0.226386 6.40417 0.205299 7.34313C0.148628 8.55072 0.132813 8.93359 0.132813 11.999C0.132813 15.0644 0.132813 15.4573 0.205299 16.6561C0.226386 17.5939 0.412214 18.5215 0.758829 19.399C1.37562 20.9166 2.63556 22.1167 4.22894 22.7042C5.15017 23.0343 6.12412 23.2125 7.10862 23.2301C8.37778 23.2841 8.77975 23.3004 11.9981 23.3004C15.2165 23.3004 15.6277 23.3004 16.8877 23.2301C17.8735 23.2113 18.8461 23.0343 19.77 22.7042C21.362 22.1154 22.622 20.9166 23.2388 19.3977C23.5972 18.524 23.8002 17.5964 23.8318 16.6549C23.8885 15.446 23.9056 15.0632 23.9056 11.9978C23.9056 8.93233 23.9056 8.53942 23.8318 7.34062C23.8121 6.40291 23.6262 5.47525 23.2796 4.59655C22.6615 3.0789 21.4016 1.88009 19.8095 1.29136C18.887 0.961218 17.9143 0.784222 16.9272 0.765392C15.6593 0.711416 15.2574 0.695097 12.0377 0.695097C8.81929 0.697607 8.41073 0.697605 7.14947 0.767902ZM18.0843 12.0065C18.0843 15.2126 15.3575 17.8098 11.9915 17.8098C8.62555 17.8098 5.89876 15.2126 5.89876 12.0065C5.89876 8.80303 8.62555 6.20332 11.9915 6.20332C15.3575 6.20332 18.0843 8.80303 18.0843 12.0065ZM7.09412 5.97235C7.09412 6.72176 6.45888 7.32555 5.67339 7.32555C4.8879 7.32555 4.25266 6.72176 4.25266 5.97235C4.25266 5.22545 4.8879 4.6204 5.67339 4.6204C6.45888 4.6204 7.09412 5.22545 7.09412 5.97235Z" fill="#1D2376"/>
<path d="M15.9495 12.0064C15.9495 9.92444 14.1776 8.23671 11.9918 8.23671C9.806 8.23671 8.03406 9.92444 8.03406 12.0064C8.03406 14.0883 9.806 15.776 11.9918 15.776C14.1776 15.776 15.9495 14.0883 15.9495 12.0064Z" fill="#1D2376"/>
</svg>
