<svg width="51" height="48" viewBox="0 0 51 48" fill="none" xmlns="http://www.w3.org/2000/svg">
<path d="M15.3175 0.151924C13.2357 0.180737 11.1703 0.547459 9.22323 1.24946C5.89833 2.47797 3.26921 4.97952 1.98215 8.1464C1.25887 9.97737 0.871101 11.9131 0.827099 13.8725C0.708844 16.3923 0.675842 17.1913 0.675842 23.5879C0.675842 29.9845 0.675842 30.8044 0.827099 33.3059C0.871101 35.2626 1.25887 37.1984 1.98215 39.0294C3.26921 42.1963 5.89833 44.7004 9.22323 45.9263C11.1456 46.6152 13.1779 46.9872 15.2323 47.0238C17.8806 47.1365 18.7194 47.1705 25.4352 47.1705C32.151 47.1705 33.0091 47.1705 35.6382 47.0238C37.6953 46.9846 39.7249 46.6152 41.6527 45.9263C44.9749 44.6978 47.604 42.1963 48.891 39.0268C49.6391 37.2036 50.0626 35.2679 50.1286 33.3033C50.2468 30.7808 50.2826 29.9819 50.2826 23.5853C50.2826 17.1886 50.2826 16.3688 50.1286 13.8672C50.0873 11.9105 49.6996 9.97475 48.9763 8.14116C47.6865 4.97428 45.0574 2.47273 41.7352 1.24422C39.8101 0.555313 37.7805 0.185978 35.7207 0.146687C33.0751 0.0340538 32.2363 0 25.5177 0C18.8019 0.00523758 17.9494 0.00523376 15.3175 0.151924ZM38.1353 23.6036C38.1353 30.2936 32.4453 35.7132 25.4215 35.7132C18.3976 35.7132 12.7076 30.2936 12.7076 23.6036C12.7076 16.9188 18.3976 11.494 25.4215 11.494C32.4453 11.494 38.1353 16.9188 38.1353 23.6036ZM15.202 11.012C15.202 12.5758 13.8764 13.8358 12.2374 13.8358C10.5983 13.8358 9.27273 12.5758 9.27273 11.012C9.27273 9.45349 10.5983 8.19093 12.2374 8.19093C13.8764 8.19093 15.202 9.45349 15.202 11.012Z" fill="#061150"/>
<path d="M33.6805 23.6034C33.6805 19.259 29.983 15.7372 25.4219 15.7372C20.8608 15.7372 17.1633 19.259 17.1633 23.6034C17.1633 27.9477 20.8608 31.4695 25.4219 31.4695C29.983 31.4695 33.6805 27.9477 33.6805 23.6034Z" fill="#061150"/>
</svg>
