<svg width="47" height="48" viewBox="0 0 47 48" fill="none" xmlns="http://www.w3.org/2000/svg">
<g clip-path="url(#clip0_75_37)">
<path d="M42.8071 0.356584L4.37143 0.0289122C2.48732 0.0128499 0.966652 1.57058 0.951031 3.40292L0.607367 43.7144C0.591746 45.5468 2.08564 47.1302 3.96974 47.1463L42.5311 47.475C44.4152 47.4911 45.9358 45.9333 45.9515 44.101L46.2951 3.78949C46.1851 1.95607 44.6912 0.372647 42.8071 0.356584ZM14.0774 40.2952L7.29466 40.2374L7.48658 17.7258L14.1437 17.7825L13.9518 40.2941L14.0774 40.2952ZM10.9047 14.6135C8.76942 14.5953 7.02655 12.748 7.04552 10.523C7.06449 8.29801 8.83749 6.61154 10.9728 6.62974C13.1081 6.64795 14.851 8.49528 14.832 10.7203C14.8131 12.9453 13.0401 14.6317 10.9047 14.6135ZM39.1988 40.5094L32.5417 40.4526L32.6354 29.4586C32.6577 26.8409 32.6867 23.438 29.1697 23.408C25.6527 23.3781 25.1257 26.2532 25.1012 29.1326L25.0064 40.2575L18.2236 40.1997L18.4144 17.8189L24.8203 17.8735L24.7947 20.8838L24.9203 20.8849C25.8151 19.06 28.0917 17.247 31.3575 17.2748C38.1402 17.3326 39.3561 22.0551 39.3048 28.0756L39.1988 40.5094Z" fill="#061150"/>
</g>
<defs>
<clipPath id="clip0_75_37">
<rect x="0.980042" width="45.3457" height="47.1191" rx="10" transform="rotate(0.488446 0.980042 0)" fill="white"/>
</clipPath>
</defs>
</svg>
