<svg width="51" height="60" viewBox="0 0 51 60" fill="none" xmlns="http://www.w3.org/2000/svg">
<path d="M25.5 30C27.2531 30 28.7539 29.4125 30.0023 28.2375C31.2508 27.0625 31.875 25.65 31.875 24C31.875 22.35 31.2508 20.9375 30.0023 19.7625C28.7539 18.5875 27.2531 18 25.5 18C23.7469 18 22.2461 18.5875 20.9977 19.7625C19.7492 20.9375 19.125 22.35 19.125 24C19.125 25.65 19.7492 27.0625 20.9977 28.2375C22.2461 29.4125 23.7469 30 25.5 30ZM25.5 52.05C31.9813 46.45 36.7891 41.3625 39.9234 36.7875C43.0578 32.2125 44.625 28.15 44.625 24.6C44.625 19.15 42.7789 14.6875 39.0867 11.2125C35.3945 7.7375 30.8656 6 25.5 6C20.1344 6 15.6055 7.7375 11.9133 11.2125C8.22109 14.6875 6.375 19.15 6.375 24.6C6.375 28.15 7.94219 32.2125 11.0766 36.7875C14.2109 41.3625 19.0188 46.45 25.5 52.05ZM25.5 60C16.9469 53.15 10.5586 46.7875 6.33516 40.9125C2.11172 35.0375 0 29.6 0 24.6C0 17.1 2.56328 11.125 7.68984 6.675C12.8164 2.225 18.7531 0 25.5 0C32.2469 0 38.1836 2.225 43.3102 6.675C48.4367 11.125 51 17.1 51 24.6C51 29.6 48.8883 35.0375 44.6648 40.9125C40.4414 46.7875 34.0531 53.15 25.5 60Z" fill="#1D2376"/>
</svg>
