<svg width="24" height="25" viewBox="0 0 24 25" fill="none" xmlns="http://www.w3.org/2000/svg">
<path d="M4.30775 20.0388C3.80258 20.0388 3.375 19.8638 3.025 19.5138C2.675 19.1638 2.5 18.7362 2.5 18.2311V6.84657C2.5 6.3414 2.675 5.91382 3.025 5.56382C3.375 5.21382 3.80258 5.03882 4.30775 5.03882H19.6923C20.1974 5.03882 20.625 5.21382 20.975 5.56382C21.325 5.91382 21.5 6.3414 21.5 6.84657V18.2311C21.5 18.7362 21.325 19.1638 20.975 19.5138C20.625 19.8638 20.1974 20.0388 19.6923 20.0388H4.30775ZM12 13.0966L20 7.98107L19.8463 6.53882L12 11.5388L4.15375 6.53882L4 7.98107L12 13.0966Z" fill="#061150"/>
</svg>
